<svg width="1440" height="799" viewBox="0 0 1440 799" fill="none"
     xmlns="http://www.w3.org/2000/svg">
    <path d="M285.496 398.911C195.52 469.466 71.4574 474.735 0 464.838V799H1440V556.43C1426.14 556.43 1402.27 551.666 1378.89 556.43C1326.85 567.036 1265.38 647.789 1213.18 657.63C1086.01 681.608 952.823 509.265 952.823 509.265C952.823 509.265 859.103 408.222 795.605 346.914C733.519 286.969 674.762 253 548.261 253C446.097 253 347.983 349.911 285.496 398.911Z"
          fill="#245CE7" fill-opacity="0.1"/>
    <path d="M385 1C413.039 32.5504 486.236 94.1487 554.71 88.1391C640.303 80.6271 698.752 56 772.135 79.1247C817.816 93.5199 813.456 138.219 854.776 170.771C896.097 203.323 1076.14 124.197 1076.14 124.197C1076.14 124.197 1203.05 66.6047 1215.35 124.197C1227.65 181.789 1176.98 250.398 1200.1 264.421C1218.59 275.638 1353.74 224.357 1419 197.313"
          stroke="#245CE7" stroke-opacity="0.24"/>
    <path d="M90.0875 456.836C89.5522 454.574 91.6336 452.572 93.8329 453.233L100.317 455.181C102.515 455.841 103.183 458.667 101.519 460.267L96.6126 464.987C94.9486 466.588 92.2007 465.764 91.6657 463.503L90.0875 456.836Z"
          fill="#E724BD"/>
    <path d="M1148.52 669.973C1147.99 667.712 1150.07 665.709 1152.27 666.37L1158.75 668.318C1160.95 668.978 1161.62 671.804 1159.96 673.405L1155.05 678.124C1153.39 679.725 1150.64 678.901 1150.1 676.641L1148.52 669.973Z"
          fill="#E7AF24"/>
    <path d="M869.401 226.973C868.866 224.712 870.947 222.709 873.146 223.37L879.631 225.318C881.829 225.978 882.496 228.804 880.832 230.405L875.926 235.124C874.262 236.725 871.514 235.901 870.979 233.641L869.401 226.973Z"
          fill="#E7AF24"/>
    <circle cx="576.5" cy="183.5" r="4.5" fill="#24E74E"/>
    <circle cx="1290.5" cy="144.5" r="4.5" fill="#E7AF24"/>
    <rect width="45.3109" height="45.5045" rx="10"
          transform="matrix(0.805179 -0.593031 0.582419 0.812889 740.368 161.522)" fill="#E7AF24"/>
    <path d="M1098.83 234.078C1104.21 224.328 1121.69 206.915 1148.55 215.253C1175.42 223.591 1188.54 208.892 1191.58 200.032"
          stroke="#E7AF24" stroke-width="2"/>
    <path d="M1098.83 210.952C1104.21 201.203 1121.69 183.789 1148.55 192.127C1175.42 200.466 1188.54 185.767 1191.58 176.906"
          stroke="#E7AF24" stroke-width="2"/>
</svg>
