<?xml version="1.0" encoding="UTF-8" standalone="no"?>
<!DOCTYPE svg PUBLIC "-//W3C//DTD SVG 1.1//EN" "http://www.w3.org/Graphics/SVG/1.1/DTD/svg11.dtd">
<svg width="100%" height="100%" viewBox="0 0 119 465" version="1.1" xmlns="http://www.w3.org/2000/svg" xmlns:xlink="http://www.w3.org/1999/xlink" xml:space="preserve" xmlns:serif="http://www.serif.com/" style="fill-rule:evenodd;clip-rule:evenodd;stroke-linejoin:round;stroke-miterlimit:2;">
    <g id="Layer_1">
        <path d="M59.5,0C109.28,0 119,103.98 119,232.21C119,360.44 92.35,464.45 59.5,464.45C26.65,464.45 0,360.48 0,232.21C0,103.94 9.69,0 59.5,0Z" style="fill:rgb(36,92,231);fill-rule:nonzero;"/>
        <path d="M59.5,0C109.28,0 119,103.98 119,232.21C119,360.44 92.35,464.45 59.5,464.45C26.65,464.45 0,360.48 0,232.21C0,103.94 9.69,0 59.5,0ZM105.19,68.57C96.8,27.92 82.74,2.78 59.5,2.78C36.26,2.78 22.17,27.92 13.78,68.57C5.19,110.35 2.78,168.24 2.78,232.21C2.78,296.18 9.39,353.96 20.1,395.74C30.53,436.47 44.48,461.67 59.5,461.67C74.52,461.67 88.44,436.47 98.87,395.74C109.58,353.96 116.19,296.16 116.19,232.21C116.19,168.26 113.78,110.35 105.19,68.57Z" style="fill:rgb(36,92,231);fill-opacity:0.48;fill-rule:nonzero;"/>
        <path d="M59.53,439.2C25.51,439.2 -25.96,159.02 60.47,159.7C146.93,159.02 93.52,439.2 59.53,439.2Z" style="fill:rgb(230,225,225);fill-rule:nonzero;"/>
        <rect x="30.1" y="90.71" width="58.76" height="1.39"/>
        <rect x="26.19" y="146.47" width="66.59" height="1.39"/>
        <path d="M30.59,90.88L93.23,146.64L92.32,147.69L29.65,91.9L30.59,90.88Z" style="fill-rule:nonzero;"/>
        <path d="M89.32,91.9L26.65,147.69L25.74,146.64L88.38,90.88L89.32,91.9Z" style="fill-rule:nonzero;"/>
        <path d="M60.18,0.03L60.18,464.43C59.95,464.43 59.73,464.46 59.5,464.46C59.24,464.46 59.02,464.43 58.79,464.43L58.79,0.03C59.02,0 59.24,0 59.5,0C59.73,0 59.95,0 60.18,0.03Z" style="fill:rgb(230,230,230);fill-rule:nonzero;"/>
        <path d="M59.5,44.7C61.51,44.7 63.19,43.06 63.19,41.01C63.19,38.96 61.52,37.33 59.5,37.33C57.48,37.33 55.81,39 55.81,41.01C55.81,43.02 57.45,44.7 59.5,44.7Z" style="fill:white;fill-rule:nonzero;"/>
        <path d="M88.87,94C90.29,94 91.48,92.84 91.48,91.39C91.48,89.94 90.29,88.78 88.87,88.78C87.45,88.78 86.26,89.97 86.26,91.39C86.26,92.81 87.42,94 88.87,94Z" style="fill:rgb(230,230,230);fill-rule:nonzero;"/>
        <path d="M30.1,94C31.55,94 32.71,92.84 32.71,91.39C32.71,89.94 31.55,88.78 30.1,88.78C28.65,88.78 27.52,89.97 27.52,91.39C27.52,92.81 28.68,94 30.1,94Z" style="fill:rgb(230,230,230);fill-rule:nonzero;"/>
        <path d="M92.78,149.75C94.23,149.75 95.39,148.59 95.39,147.17C95.39,145.75 94.23,144.56 92.78,144.56C91.33,144.56 90.17,145.72 90.17,147.17C90.17,148.62 91.33,149.75 92.78,149.75Z" style="fill:rgb(230,230,230);fill-rule:nonzero;"/>
        <path d="M26.19,149.75C27.64,149.75 28.8,148.59 28.8,147.17C28.8,145.75 27.64,144.56 26.19,144.56C24.74,144.56 23.58,145.72 23.58,147.17C23.58,148.62 24.77,149.75 26.19,149.75Z" style="fill:rgb(230,230,230);fill-rule:nonzero;"/>
    </g>
</svg>
